<?xml version="1.0" standalone="no"?>
<!DOCTYPE svg PUBLIC "-//W3C//DTD SVG 20010904//EN"
 "http://www.w3.org/TR/2001/REC-SVG-20010904/DTD/svg10.dtd">
<svg version="1.0" xmlns="http://www.w3.org/2000/svg"
 width="400.000000pt" height="400.000000pt" viewBox="0 0 400.000000 400.000000"
 preserveAspectRatio="xMidYMid meet">
<metadata>
Created by potrace 1.14, written by Peter Selinger 2001-2017
</metadata>
<g transform="translate(0.000000,400.000000) scale(0.100000,-0.100000)"
fill="#000000" stroke="none">
<path d="M2600 3114 c-80 -15 -225 -69 -290 -108 -437 -259 -571 -800 -308
-1239 l23 -39 -24 -19 c-13 -11 -30 -18 -37 -15 -31 12 -397 322 -419 354 -38
57 -64 145 -85 284 -22 144 -41 201 -94 281 -66 100 -397 408 -453 423 -29 8
-63 -19 -151 -120 -129 -148 -351 -429 -374 -474 l-23 -44 55 -51 c75 -70 279
-224 364 -275 137 -83 154 -86 396 -87 285 -1 271 4 512 -194 l187 -154 -84
-53 c-196 -123 -474 -352 -593 -488 -88 -100 -112 -165 -74 -199 51 -46 172 8
367 162 129 102 301 259 403 366 72 76 105 104 114 98 8 -4 44 -32 80 -62 58
-47 66 -57 62 -80 -5 -24 14 -43 203 -207 332 -290 337 -294 368 -294 52 0
137 116 116 157 -3 6 -133 111 -288 232 -228 178 -289 221 -314 221 -22 0 -49
15 -100 56 -38 31 -69 60 -69 64 0 4 7 13 16 20 13 11 23 6 67 -37 96 -94 232
-167 389 -210 48 -14 99 -18 213 -17 134 0 160 3 240 28 301 92 519 314 607
623 19 66 23 102 22 228 0 134 -3 160 -27 238 -77 252 -235 438 -467 553 -119
58 -197 76 -360 79 -80 2 -156 1 -170 -1z m-1512 -304 c105 -88 192 -164 192
-170 0 -30 -53 4 -211 134 -96 78 -180 150 -187 159 -13 15 -9 37 6 37 4 0 94
-72 200 -160z m1843 69 c408 -113 600 -570 401 -954 -53 -103 -173 -220 -279
-273 -115 -57 -208 -76 -342 -70 -82 4 -123 12 -181 33 -41 15 -79 32 -85 37
-5 5 6 3 27 -5 178 -74 406 -56 576 45 123 72 239 219 283 358 27 83 36 238
19 322 -43 223 -212 411 -434 485 -70 23 -97 27 -201 26 -83 0 -135 -5 -170
-16 -27 -9 -51 -14 -53 -12 -6 6 103 36 163 46 70 11 193 1 276 -22z m-1910
-156 c174 -144 209 -180 166 -177 -22 2 -387 305 -387 321 0 31 43 3 221 -144z
m-106 -54 c236 -193 252 -209 208 -209 -23 0 -387 301 -391 323 -7 35 28 13
183 -114z m-29 -118 c168 -139 205 -178 162 -175 -11 1 -294 227 -382 305 -15
13 2 41 19 32 8 -5 99 -78 201 -162z m-79 -76 c103 -86 189 -162 191 -170 8
-37 -42 -4 -219 141 -174 143 -213 184 -175 184 8 0 99 -70 203 -155z m-49
-102 c155 -129 191 -168 154 -168 -12 0 -344 269 -376 304 -10 11 -15 25 -11
31 10 16 33 -1 233 -167z m-87 -69 c176 -146 212 -184 174 -184 -20 0 -395
311 -395 327 0 31 43 3 221 -143z m1121 -831 c18 -16 23 -49 10 -69 -4 -6 -72
-66 -152 -134 -80 -68 -157 -134 -172 -148 -16 -14 -28 -23 -28 -20 0 3 72 69
161 148 159 141 187 174 176 204 -14 35 -60 18 -150 -54 -48 -39 -87 -69 -87
-66 0 13 188 156 204 156 11 0 28 -7 38 -17z m-252 -147 c0 -2 -8 -10 -17 -17
-16 -13 -17 -12 -4 4 13 16 21 21 21 13z m-260 -296 c8 -14 8 -26 0 -40 -19
-35 -80 -20 -80 20 0 40 61 55 80 20z m1464 4 c29 -29 13 -74 -25 -74 -19 0
-49 25 -49 41 0 12 37 49 49 49 5 0 17 -7 25 -16z"/>
</g>
</svg>
