<?xml version="1.0" standalone="no"?>
<!DOCTYPE svg PUBLIC "-//W3C//DTD SVG 1.1//EN" "http://www.w3.org/Graphics/SVG/1.1/DTD/svg11.dtd" >
<svg xmlns="http://www.w3.org/2000/svg" xmlns:xlink="http://www.w3.org/1999/xlink" version="1.1">
<metadata>
Created by FontForge 20190801 at Mon Jan 11 19:19:34 2016
 By root
Copyright (c) 2016 by Taner Ardal\u0131 . All rights reserved.
</metadata>
<defs>
<font id="antre" horiz-adv-x="562" >
  <font-face 
    font-family="antre"
    font-weight="400"
    font-stretch="normal"
    units-per-em="1000"
    panose-1="2 0 0 0 0 0 0 0 0 0"
    ascent="750"
    descent="-250"
    cap-height="705"
    bbox="-145 -239 1240.4 760"
    underline-thickness="50"
    underline-position="-100"
    unicode-range="U+0020-201D"
  />
<missing-glyph horiz-adv-x="500" 
 />
    <glyph glyph-name=".notdef" horiz-adv-x="500" 
 />
    <glyph glyph-name="b" unicode="B" horiz-adv-x="511" 
d="M620 361c18 -15 20 -40 4 -59l-116 -138c-95 -113 -163 -157 -246 -169c-12 -2 -24 -3 -44 -3c-46 0 -92 18 -126 54c-4 -11 -6 -19 -7 -23c-5 -19 -22 -31 -41 -31c-4 0 -8 1 -12 2c-23 6 -36 30 -30 53c4 13 25 90 52 186l-54 -65c-14 -15 -44 -19 -60 -5
c-19 16 -21 43 -5 61l50 59c41 49 114 134 136 191c37 132 69 245 69 247c7 23 31 37 53 30c23 -6 37 -30 30 -53c0 -2 -24 -87 -54 -195c33 15 64 19 86 19c80 0 123 -34 145 -62c18 -24 29 -52 32 -85c3 -29 1 -60 -8 -93c-4 -15 -7 -27 -11 -39l96 114c15 18 43 20 61 4z
M153 108c14 -19 37 -29 70 -30c84 0 121 70 143 135l25 91c18 71 -2 132 -86 132c-19 0 -47 -5 -75 -27c-30 -23 -52 -60 -67 -110c-7 -24 -17 -59 -22 -78c-12 -45 -8 -88 12 -113z" />
    <glyph glyph-name="b" unicode="b" horiz-adv-x="511" 
d="M620 361c18 -15 20 -40 4 -59l-116 -138c-95 -113 -163 -157 -246 -169c-12 -2 -24 -3 -44 -3c-46 0 -92 18 -126 54c-4 -11 -6 -19 -7 -23c-5 -19 -22 -31 -41 -31c-4 0 -8 1 -12 2c-23 6 -36 30 -30 53c4 13 25 90 52 186l-54 -65c-14 -15 -44 -19 -60 -5
c-19 16 -21 43 -5 61l50 59c41 49 114 134 136 191c37 132 69 245 69 247c7 23 31 37 53 30c23 -6 37 -30 30 -53c0 -2 -24 -87 -54 -195c33 15 64 19 86 19c80 0 123 -34 145 -62c18 -24 29 -52 32 -85c3 -29 1 -60 -8 -93c-4 -15 -7 -27 -11 -39l96 114c15 18 43 20 61 4z
M153 108c14 -19 37 -29 70 -30c84 0 121 70 143 135l25 91c18 71 -2 132 -86 132c-19 0 -47 -5 -75 -27c-30 -23 -52 -60 -67 -110c-7 -24 -17 -59 -22 -78c-12 -45 -8 -88 12 -113z" />
    <glyph glyph-name="c" unicode="C" horiz-adv-x="522" 
d="M588 311c18 -16 19 -42 4 -60l-79 -94c-31 -37 -65 -71 -109 -103c-58 -41 -117 -62 -175 -62c-32 0 -61 6 -87 17c-25 11 -47 27 -63 49c-34 44 -43 107 -25 174c0 0 -46 -54 -51 -60c-9 -11 -21 -15 -33 -15c-10 0 -20 4 -28 11c-18 15 -20 40 -5 58l114 135
c45 53 80 92 116 119c9 7 18 13 28 18c32 18 68 25 105 25c62 0 118 -24 162 -69c10 -11 14 -26 10 -41l-14 -56c-6 -23 -33 -36 -56 -30s-34 30 -28 53l8 30c-24 18 -51 27 -82 27c-81 0 -118 -62 -138 -132c-9 -31 -17 -57 -26 -94c-17 -73 4 -133 93 -133
c40 0 81 15 125 47c42 30 79 70 98 92l75 89c15 18 42 20 61 5z" />
    <glyph glyph-name="c" unicode="c" horiz-adv-x="522" 
d="M588 311c18 -16 19 -42 4 -60l-79 -94c-31 -37 -65 -71 -109 -103c-58 -41 -117 -62 -175 -62c-32 0 -61 6 -87 17c-25 11 -47 27 -63 49c-34 44 -43 107 -25 174c0 0 -46 -54 -51 -60c-9 -11 -21 -15 -33 -15c-10 0 -20 4 -28 11c-18 15 -20 40 -5 58l114 135
c45 53 80 92 116 119c9 7 18 13 28 18c32 18 68 25 105 25c62 0 118 -24 162 -69c10 -11 14 -26 10 -41l-14 -56c-6 -23 -33 -36 -56 -30s-34 30 -28 53l8 30c-24 18 -51 27 -82 27c-81 0 -118 -62 -138 -132c-9 -31 -17 -57 -26 -94c-17 -73 4 -133 93 -133
c40 0 81 15 125 47c42 30 79 70 98 92l75 89c15 18 42 20 61 5z" />
    <glyph glyph-name="d" unicode="D" horiz-adv-x="615" 
d="M410 81c24 0 49 34 68 56l158 188c15 19 45 23 63 7c18 -15 19 -42 4 -60l-148 -176c-51 -61 -90 -104 -158 -104c-36 0 -59 16 -70 37c-36 -24 -77 -37 -120 -37c-59 0 -107 23 -138 63c-32 42 -41 99 -26 163l-42 -50c-9 -10 -18 -12 -30 -12c-10 0 -20 3 -28 10
c-18 16 -20 43 -4 61l116 138c39 45 76 92 117 120c39 27 76 38 131 38c46 0 94 -18 125 -53l69 251c6 23 30 37 52 30c23 -6 37 -30 31 -53zM207 78c54 0 117 17 159 167c7 24 15 50 21 77c14 62 -17 115 -88 115c-74 0 -123 -61 -144 -135c-9 -30 -17 -60 -25 -92
c-20 -67 -2 -132 77 -132z" />
    <glyph glyph-name="d" unicode="d" horiz-adv-x="615" 
d="M410 81c24 0 49 34 68 56l158 188c15 19 45 23 63 7c18 -15 19 -42 4 -60l-148 -176c-51 -61 -90 -104 -158 -104c-36 0 -59 16 -70 37c-36 -24 -77 -37 -120 -37c-59 0 -107 23 -138 63c-32 42 -41 99 -26 163l-42 -50c-9 -10 -18 -12 -30 -12c-10 0 -20 3 -28 10
c-18 16 -20 43 -4 61l116 138c39 45 76 92 117 120c39 27 76 38 131 38c46 0 94 -18 125 -53l69 251c6 23 30 37 52 30c23 -6 37 -30 31 -53zM207 78c54 0 117 17 159 167c7 24 15 50 21 77c14 62 -17 115 -88 115c-74 0 -123 -61 -144 -135c-9 -30 -17 -60 -25 -92
c-20 -67 -2 -132 77 -132z" />
    <glyph glyph-name="e" unicode="E" 
d="M627 308c18 -16 18 -42 3 -60l-74 -88c-56 -64 -101 -104 -154 -131c-48 -25 -97 -37 -156 -37c-98 0 -147 39 -172 72c-32 43 -41 101 -25 162l-45 -54c-9 -10 -21 -14 -33 -14c-10 0 -20 3 -28 10c-18 16 -18 44 -2 62l139 165c43 51 81 84 119 103c36 19 75 25 115 25
c68 0 140 -43 150 -117c4 -22 2 -45 -4 -68c-15 -49 -42 -86 -82 -109c-39 -22 -90 -33 -156 -33h-92c-6 -32 -2 -60 13 -80c18 -25 54 -38 103 -38c79 0 147 25 249 142l73 87c16 19 41 17 59 1zM377 362c10 44 -20 75 -67 75c-77 0 -128 -55 -151 -135
c-2 -7 -4 -14 -5 -20h68c51 0 88 7 113 22c21 12 36 30 42 58z" />
    <glyph glyph-name="e" unicode="e" 
d="M627 308c18 -16 18 -42 3 -60l-74 -88c-56 -64 -101 -104 -154 -131c-48 -25 -97 -37 -156 -37c-98 0 -147 39 -172 72c-32 43 -41 101 -25 162l-45 -54c-9 -10 -21 -14 -33 -14c-10 0 -20 3 -28 10c-18 16 -18 44 -2 62l139 165c43 51 81 84 119 103c36 19 75 25 115 25
c68 0 140 -43 150 -117c4 -22 2 -45 -4 -68c-15 -49 -42 -86 -82 -109c-39 -22 -90 -33 -156 -33h-92c-6 -32 -2 -60 13 -80c18 -25 54 -38 103 -38c79 0 147 25 249 142l73 87c16 19 41 17 59 1zM377 362c10 44 -20 75 -67 75c-77 0 -128 -55 -151 -135
c-2 -7 -4 -14 -5 -20h68c51 0 88 7 113 22c21 12 36 30 42 58z" />
    <glyph glyph-name="f" unicode="F" horiz-adv-x="287" 
d="M391 718c0 -29 -21 -44 -45 -45c-60 -3 -80 -23 -88 -53c-11 -38 -75 -272 -128 -465c28 4 46 14 68 39c28 32 89 106 135 161c14 17 40 27 62 7c28 -25 11 -54 3 -62l-126 -151c-48 -57 -104 -79 -166 -82l-47 -169c-24 -82 -64 -136 -151 -136c-18 0 -41 11 -41 40
c0 24 14 41 42 46c35 6 53 23 65 67l93 333l-61 -73c-9 -10 -21 -15 -33 -15c-10 0 -19 4 -27 11c-18 15 -21 40 -6 58l160 190c12 15 25 44 34 72l42 152c20 73 79 113 168 113c32 0 47 -16 47 -38z" />
    <glyph glyph-name="f" unicode="f" horiz-adv-x="287" 
d="M391 718c0 -29 -21 -44 -45 -45c-60 -3 -80 -23 -88 -53c-11 -38 -75 -272 -128 -465c28 4 46 14 68 39c28 32 89 106 135 161c14 17 40 27 62 7c28 -25 11 -54 3 -62l-126 -151c-48 -57 -104 -79 -166 -82l-47 -169c-24 -82 -64 -136 -151 -136c-18 0 -41 11 -41 40
c0 24 14 41 42 46c35 6 53 23 65 67l93 333l-61 -73c-9 -10 -21 -15 -33 -15c-10 0 -19 4 -27 11c-18 15 -21 40 -6 58l160 190c12 15 25 44 34 72l42 152c20 73 79 113 168 113c32 0 47 -16 47 -38z" />
    <glyph glyph-name="g" unicode="G" horiz-adv-x="607" 
d="M682 323c18 -16 20 -42 5 -60l-251 -298c-97 -113 -132 -151 -133 -152c-31 -33 -79 -52 -127 -52c-78 0 -117 32 -140 55c-19 20 -32 42 -34 44c-12 21 -5 47 15 59c21 12 46 7 59 -15c0 0 10 -15 22 -28c13 -14 31 -28 78 -28c43 0 83 31 95 73c16 56 -18 98 -50 131
c-28 29 -50 50 -77 77c-48 48 -64 85 -69 128l-63 -75c-15 -18 -44 -23 -62 -8c-18 16 -20 43 -5 61c43 52 80 94 125 148c36 42 70 89 121 112c33 15 70 20 106 20h173c24 0 43 -19 43 -43s-19 -43 -43 -43h-20c21 -40 26 -89 12 -141c-15 -56 -43 -100 -82 -131
c-28 -22 -62 -36 -100 -42c36 -32 59 -68 74 -115c4 5 9 11 268 318c15 18 42 20 60 5zM379 310c15 59 -10 119 -82 119c-66 0 -114 -27 -133 -97c-10 -34 -11 -74 11 -103c15 -20 38 -31 64 -31c72 0 120 38 140 112z" />
    <glyph glyph-name="g" unicode="g" horiz-adv-x="607" 
d="M682 323c18 -16 20 -42 5 -60l-251 -298c-97 -113 -132 -151 -133 -152c-31 -33 -79 -52 -127 -52c-78 0 -117 32 -140 55c-19 20 -32 42 -34 44c-12 21 -5 47 15 59c21 12 46 7 59 -15c0 0 10 -15 22 -28c13 -14 31 -28 78 -28c43 0 83 31 95 73c16 56 -18 98 -50 131
c-28 29 -50 50 -77 77c-48 48 -64 85 -69 128l-63 -75c-15 -18 -44 -23 -62 -8c-18 16 -20 43 -5 61c43 52 80 94 125 148c36 42 70 89 121 112c33 15 70 20 106 20h173c24 0 43 -19 43 -43s-19 -43 -43 -43h-20c21 -40 26 -89 12 -141c-15 -56 -43 -100 -82 -131
c-28 -22 -62 -36 -100 -42c36 -32 59 -68 74 -115c4 5 9 11 268 318c15 18 42 20 60 5zM379 310c15 59 -10 119 -82 119c-66 0 -114 -27 -133 -97c-10 -34 -11 -74 11 -103c15 -20 38 -31 64 -31c72 0 120 38 140 112z" />
    <glyph glyph-name="h" unicode="H" horiz-adv-x="611" 
d="M674 308c18 -16 19 -42 4 -60l-157 -187c-20 -24 -59 -68 -115 -68c-66 0 -87 42 -87 72s8 53 15 80c5 20 42 153 42 153c15 51 13 91 -4 114c-15 20 -42 25 -62 25c-89 0 -134 -84 -158 -172l-65 -234c-5 -19 -22 -31 -41 -31c-4 0 -8 0 -12 2c-23 6 -36 30 -30 53
l50 177l-48 -57s-14 -16 -33 -16c-22 0 -42 20 -42 45c0 16 9 25 9 25l44 52c43 51 120 147 140 203c8 23 9 33 18 65c16 58 32 115 47 172c7 23 31 36 53 30c23 -7 37 -30 30 -53l-54 -196c28 14 59 21 92 21c49 0 100 -17 131 -59c24 -32 46 -91 18 -190l-43 -155
c-3 -12 -8 -28 -10 -38c15 0 25 8 47 32l160 190c16 18 43 20 61 5z" />
    <glyph glyph-name="h" unicode="h" horiz-adv-x="611" 
d="M674 308c18 -16 19 -42 4 -60l-157 -187c-20 -24 -59 -68 -115 -68c-66 0 -87 42 -87 72s8 53 15 80c5 20 42 153 42 153c15 51 13 91 -4 114c-15 20 -42 25 -62 25c-89 0 -134 -84 -158 -172l-65 -234c-5 -19 -22 -31 -41 -31c-4 0 -8 0 -12 2c-23 6 -36 30 -30 53
l50 177l-48 -57s-14 -16 -33 -16c-22 0 -42 20 -42 45c0 16 9 25 9 25l44 52c43 51 120 147 140 203c8 23 9 33 18 65c16 58 32 115 47 172c7 23 31 36 53 30c23 -7 37 -30 30 -53l-54 -196c28 14 59 21 92 21c49 0 100 -17 131 -59c24 -32 46 -91 18 -190l-43 -155
c-3 -12 -8 -28 -10 -38c15 0 25 8 47 32l160 190c16 18 43 20 61 5z" />
    <glyph glyph-name="i" unicode="I" horiz-adv-x="344" 
d="M52 93c0 0 30 111 55 202l-94 -112c-16 -18 -41 -18 -59 -4s-20 43 -5 61l219 260c8 10 21 15 33 15c25 0 44 -19 44 -41c0 -4 -1 -10 -4 -22l-102 -371c24 0 49 34 68 56l149 177c15 19 45 23 63 7c18 -15 17 -44 2 -62l-135 -161c-51 -61 -92 -106 -160 -106
c-53 0 -78 37 -78 70c0 8 2 23 4 31zM245 591c-32 0 -57 26 -57 57c0 32 25 57 57 57c31 0 57 -25 57 -57c0 -31 -26 -57 -57 -57z" />
    <glyph glyph-name="i" unicode="&#x130;" horiz-adv-x="344" 
d="M52 93c0 0 30 111 55 202l-94 -112c-16 -18 -41 -18 -59 -4s-20 43 -5 61l219 260c8 10 21 15 33 15c25 0 44 -19 44 -41c0 -4 -1 -10 -4 -22l-102 -371c24 0 49 34 68 56l149 177c15 19 45 23 63 7c18 -15 17 -44 2 -62l-135 -161c-51 -61 -92 -106 -160 -106
c-53 0 -78 37 -78 70c0 8 2 23 4 31zM245 591c-32 0 -57 26 -57 57c0 32 25 57 57 57c31 0 57 -25 57 -57c0 -31 -26 -57 -57 -57z" />
    <glyph glyph-name="i" unicode="i" horiz-adv-x="344" 
d="M52 93c0 0 30 111 55 202l-94 -112c-16 -18 -41 -18 -59 -4s-20 43 -5 61l219 260c8 10 21 15 33 15c25 0 44 -19 44 -41c0 -4 -1 -10 -4 -22l-102 -371c24 0 49 34 68 56l149 177c15 19 45 23 63 7c18 -15 17 -44 2 -62l-135 -161c-51 -61 -92 -106 -160 -106
c-53 0 -78 37 -78 70c0 8 2 23 4 31zM245 591c-32 0 -57 26 -57 57c0 32 25 57 57 57c31 0 57 -25 57 -57c0 -31 -26 -57 -57 -57z" />
    <glyph glyph-name="j" unicode="J" horiz-adv-x="314" 
d="M-101 -236c-16 0 -44 9 -44 43c0 36 34 41 34 41c64 20 112 70 132 130c22 69 60 207 90 321l-90 -107c-16 -18 -45 -22 -62 -7c-18 15 -19 43 -4 61l214 254c12 15 30 17 44 14c23 -6 37 -30 31 -53c-3 -11 -54 -205 -98 -361l206 245c16 18 43 20 61 5
c18 -16 21 -40 6 -58l-375 -445c-35 -42 -95 -83 -145 -83zM251 591c-32 0 -57 26 -57 57c0 32 25 57 57 57c31 0 57 -25 57 -57c0 -31 -26 -57 -57 -57z" />
    <glyph glyph-name="j" unicode="j" horiz-adv-x="314" 
d="M-101 -236c-16 0 -44 9 -44 43c0 36 34 41 34 41c64 20 112 70 132 130c22 69 60 207 90 321l-90 -107c-16 -18 -45 -22 -62 -7c-18 15 -19 43 -4 61l214 254c12 15 30 17 44 14c23 -6 37 -30 31 -53c-3 -11 -54 -205 -98 -361l206 245c16 18 43 20 61 5
c18 -16 21 -40 6 -58l-375 -445c-35 -42 -95 -83 -145 -83zM251 591c-32 0 -57 26 -57 57c0 32 25 57 57 57c31 0 57 -25 57 -57c0 -31 -26 -57 -57 -57z" />
    <glyph glyph-name="k" unicode="K" horiz-adv-x="636" 
d="M708 319c19 -15 20 -41 5 -59l-173 -206c-19 -22 -55 -62 -113 -62c-63 0 -92 21 -128 82c-30 51 -49 85 -69 123c-14 26 1 64 36 67s71 10 100 25c23 12 52 34 62 69c5 19 2 37 -8 50c-13 18 -39 29 -70 29c-49 0 -89 -24 -122 -72c-33 -49 -48 -106 -64 -161
c-15 -58 -31 -115 -47 -172c-5 -20 -23 -32 -41 -32c-33 0 -49 28 -42 54c0 1 62 228 62 228l-51 -61c-9 -10 -21 -15 -33 -15c-10 0 -18 3 -26 10c-18 15 -19 45 -4 63l86 102l22 26c-3 -3 61 72 81 145c14 51 30 106 47 169c6 23 30 37 53 30c23 -6 36 -30 30 -53
l-56 -202c32 18 67 27 105 27c58 0 109 -23 139 -63c27 -35 34 -80 22 -125c-15 -51 -51 -93 -104 -122c-22 -12 -47 -21 -73 -27c11 -21 24 -43 39 -68c13 -22 27 -41 48 -41c20 0 34 13 44 22c13 12 25 28 183 216c15 18 42 20 60 4z" />
    <glyph glyph-name="k" unicode="k" horiz-adv-x="636" 
d="M708 319c19 -15 20 -41 5 -59l-173 -206c-19 -22 -55 -62 -113 -62c-63 0 -92 21 -128 82c-30 51 -49 85 -69 123c-14 26 1 64 36 67s71 10 100 25c23 12 52 34 62 69c5 19 2 37 -8 50c-13 18 -39 29 -70 29c-49 0 -89 -24 -122 -72c-33 -49 -48 -106 -64 -161
c-15 -58 -31 -115 -47 -172c-5 -20 -23 -32 -41 -32c-33 0 -49 28 -42 54c0 1 62 228 62 228l-51 -61c-9 -10 -21 -15 -33 -15c-10 0 -18 3 -26 10c-18 15 -19 45 -4 63l86 102l22 26c-3 -3 61 72 81 145c14 51 30 106 47 169c6 23 30 37 53 30c23 -6 36 -30 30 -53
l-56 -202c32 18 67 27 105 27c58 0 109 -23 139 -63c27 -35 34 -80 22 -125c-15 -51 -51 -93 -104 -122c-22 -12 -47 -21 -73 -27c11 -21 24 -43 39 -68c13 -22 27 -41 48 -41c20 0 34 13 44 22c13 12 25 28 183 216c15 18 42 20 60 4z" />
    <glyph glyph-name="l" unicode="L" horiz-adv-x="309" 
d="M400 340c18 -15 17 -45 0 -64c-1 -1 -139 -166 -172 -203c-36 -41 -86 -73 -130 -73c-21 0 -47 20 -53 44s1 55 5 71l47 168l-65 -78c-9 -11 -23 -17 -35 -17c-10 0 -20 3 -28 10c-18 15 -18 45 -2 63l102 121c38 43 82 99 102 172c16 58 32 111 47 167c6 23 30 37 53 30
c23 -6 36 -30 30 -53l-164 -591c16 9 40 37 54 54l145 171c15 18 46 24 64 8z" />
    <glyph glyph-name="l" unicode="l" horiz-adv-x="309" 
d="M400 340c18 -15 17 -45 0 -64c-1 -1 -139 -166 -172 -203c-36 -41 -86 -73 -130 -73c-21 0 -47 20 -53 44s1 55 5 71l47 168l-65 -78c-9 -11 -23 -17 -35 -17c-10 0 -20 3 -28 10c-18 15 -18 45 -2 63l102 121c38 43 82 99 102 172c16 58 32 111 47 167c6 23 30 37 53 30
c23 -6 36 -30 30 -53l-164 -591c16 9 40 37 54 54l145 171c15 18 46 24 64 8z" />
    <glyph glyph-name="m" unicode="M" horiz-adv-x="896" 
d="M960 308c18 -16 19 -42 4 -60c-1 -1 -168 -200 -168 -200c-38 -42 -69 -55 -111 -55s-82 30 -82 70c0 9 1 25 6 44l62 224c17 59 0 108 -63 108c-66 0 -104 -58 -121 -122c-13 -47 -57 -209 -60 -220c-8 -26 -28 -40 -56 -33c-24 6 -35 26 -28 53l58 215
c17 56 7 107 -49 107c-69 0 -132 -70 -171 -205l-57 -202c-5 -19 -22 -32 -41 -32c-33 0 -49 27 -42 55l67 241l-89 -105c-9 -10 -20 -16 -32 -16c-10 0 -20 3 -28 10c-18 15 -20 43 -5 61c0 0 93 110 156 185c28 33 35 47 46 63s25 21 37 21c37 0 46 -30 43 -44
c29 31 74 52 121 52s87 -19 115 -60c35 40 87 60 142 60c48 0 92 -18 123 -58c33 -44 33 -102 17 -157l-62 -227c17 0 30 13 47 32c0 0 159 189 160 190c16 18 43 20 61 5z" />
    <glyph glyph-name="m" unicode="m" horiz-adv-x="896" 
d="M960 308c18 -16 19 -42 4 -60c-1 -1 -168 -200 -168 -200c-38 -42 -69 -55 -111 -55s-82 30 -82 70c0 9 1 25 6 44l62 224c17 59 0 108 -63 108c-66 0 -104 -58 -121 -122c-13 -47 -57 -209 -60 -220c-8 -26 -28 -40 -56 -33c-24 6 -35 26 -28 53l58 215
c17 56 7 107 -49 107c-69 0 -132 -70 -171 -205l-57 -202c-5 -19 -22 -32 -41 -32c-33 0 -49 27 -42 55l67 241l-89 -105c-9 -10 -20 -16 -32 -16c-10 0 -20 3 -28 10c-18 15 -20 43 -5 61c0 0 93 110 156 185c28 33 35 47 46 63s25 21 37 21c37 0 46 -30 43 -44
c29 31 74 52 121 52s87 -19 115 -60c35 40 87 60 142 60c48 0 92 -18 123 -58c33 -44 33 -102 17 -157l-62 -227c17 0 30 13 47 32c0 0 159 189 160 190c16 18 43 20 61 5z" />
    <glyph glyph-name="n" unicode="N" horiz-adv-x="647" 
d="M-40 185c-18 15 -20 44 -5 62l160 190c15 17 22 28 37 51c14 21 27 27 41 27c30 0 50 -23 43 -48c37 39 86 56 137 56c106 0 170 -93 132 -215c-58 -212 -57 -207 -62 -227c17 0 30 13 47 32c0 0 159 189 160 190c16 18 43 20 61 5c18 -16 19 -42 4 -60
c-1 -1 -168 -200 -168 -200c-38 -42 -69 -55 -111 -55s-82 32 -82 72c0 13 2 27 6 42l62 224c18 66 -5 108 -64 108c-71 0 -141 -76 -177 -203l-58 -204c-6 -20 -22 -32 -41 -32c-4 0 -8 0 -12 1c-22 7 -36 31 -30 53l66 240l-89 -106c-15 -18 -40 -18 -57 -3z" />
    <glyph glyph-name="n" unicode="n" horiz-adv-x="647" 
d="M-40 185c-18 15 -20 44 -5 62l160 190c15 17 22 28 37 51c14 21 27 27 41 27c30 0 50 -23 43 -48c37 39 86 56 137 56c106 0 170 -93 132 -215c-58 -212 -57 -207 -62 -227c17 0 30 13 47 32c0 0 159 189 160 190c16 18 43 20 61 5c18 -16 19 -42 4 -60
c-1 -1 -168 -200 -168 -200c-38 -42 -69 -55 -111 -55s-82 32 -82 72c0 13 2 27 6 42l62 224c18 66 -5 108 -64 108c-71 0 -141 -76 -177 -203l-58 -204c-6 -20 -22 -32 -41 -32c-4 0 -8 0 -12 1c-22 7 -36 31 -30 53l66 240l-89 -106c-15 -18 -40 -18 -57 -3z" />
    <glyph glyph-name="o" unicode="O" horiz-adv-x="576" 
d="M212 -8c-57 0 -107 22 -137 62c-37 51 -40 116 -23 173c1 3 1 3 1 4v0l-51 -61c-16 -18 -39 -19 -58 -4c-18 15 -21 44 -5 62l137 163c48 56 84 89 118 108c33 19 64 24 95 24c24 0 37 -11 43 -28c15 7 30 11 46 11c34 0 65 -15 86 -41c18 -23 37 -65 20 -136
c-2 -10 -12 -45 -23 -85c11 -4 42 -7 62 -7l94 112c15 18 43 19 61 3c18 -15 20 -39 5 -57l-102 -123c-10 -12 -32 -22 -54 -22c-30 0 -54 2 -92 12c-18 -44 -43 -81 -73 -109c-42 -40 -94 -61 -150 -61zM271 435c-20 -4 -37 -13 -53 -28c-24 -24 -43 -60 -57 -109
c-9 -34 -17 -62 -26 -92c-4 -15 -7 -34 -7 -48c0 -48 31 -80 84 -80c34 0 65 13 92 38c20 19 37 45 51 77c-16 9 -30 19 -42 31c-38 38 -57 80 -57 135c0 23 5 56 15 76zM378 420c-16 0 -36 -18 -36 -53s12 -68 39 -88c8 28 18 62 19 70c7 28 6 51 -3 62c-6 7 -15 9 -19 9z
" />
    <glyph glyph-name="o" unicode="o" horiz-adv-x="576" 
d="M212 -8c-57 0 -107 22 -137 62c-37 51 -40 116 -23 173c1 3 1 3 1 4v0l-51 -61c-16 -18 -39 -19 -58 -4c-18 15 -21 44 -5 62l137 163c48 56 84 89 118 108c33 19 64 24 95 24c24 0 37 -11 43 -28c15 7 30 11 46 11c34 0 65 -15 86 -41c18 -23 37 -65 20 -136
c-2 -10 -12 -45 -23 -85c11 -4 42 -7 62 -7l94 112c15 18 43 19 61 3c18 -15 20 -39 5 -57l-102 -123c-10 -12 -32 -22 -54 -22c-30 0 -54 2 -92 12c-18 -44 -43 -81 -73 -109c-42 -40 -94 -61 -150 -61zM271 435c-20 -4 -37 -13 -53 -28c-24 -24 -43 -60 -57 -109
c-9 -34 -17 -62 -26 -92c-4 -15 -7 -34 -7 -48c0 -48 31 -80 84 -80c34 0 65 13 92 38c20 19 37 45 51 77c-16 9 -30 19 -42 31c-38 38 -57 80 -57 135c0 23 5 56 15 76zM378 420c-16 0 -36 -18 -36 -53s12 -68 39 -88c8 28 18 62 19 70c7 28 6 51 -3 62c-6 7 -15 9 -19 9z
" />
    <glyph glyph-name="p" unicode="P" 
d="M-21 -238c-4 0 -8 0 -12 1c-23 7 -36 30 -30 53c0 1 15 51 115 413l-48 -57c-8 -10 -22 -18 -34 -18c-10 0 -19 4 -27 10c-19 15 -21 42 -6 61l110 131c38 46 67 99 76 128c7 23 31 36 54 29c10 -3 19 -10 24 -19c39 22 76 28 103 28c79 0 122 -34 144 -62
c18 -24 29 -52 33 -85c3 -29 0 -60 -9 -93c-8 -32 -13 -49 -25 -92l-9 -29c18 16 36 36 58 61l111 132c16 18 43 21 61 5c18 -15 20 -41 5 -59l-113 -135c-124 -136 -219 -172 -322 -172c-51 0 -111 15 -146 58c-60 -212 -72 -257 -72 -258c-5 -19 -22 -31 -41 -31zM304 436
c-19 0 -47 -5 -76 -27c-30 -23 -52 -60 -66 -110c-8 -24 -13 -46 -18 -63c-27 -93 9 -158 91 -158c81 0 112 74 130 139c11 39 16 55 24 88c12 42 8 79 -9 102c-15 19 -41 29 -76 29z" />
    <glyph glyph-name="p" unicode="p" 
d="M-21 -238c-4 0 -8 0 -12 1c-23 7 -36 30 -30 53c0 1 15 51 115 413l-48 -57c-8 -10 -22 -18 -34 -18c-10 0 -19 4 -27 10c-19 15 -21 42 -6 61l110 131c38 46 67 99 76 128c7 23 31 36 54 29c10 -3 19 -10 24 -19c39 22 76 28 103 28c79 0 122 -34 144 -62
c18 -24 29 -52 33 -85c3 -29 0 -60 -9 -93c-8 -32 -13 -49 -25 -92l-9 -29c18 16 36 36 58 61l111 132c16 18 43 21 61 5c18 -15 20 -41 5 -59l-113 -135c-124 -136 -219 -172 -322 -172c-51 0 -111 15 -146 58c-60 -212 -72 -257 -72 -258c-5 -19 -22 -31 -41 -31zM304 436
c-19 0 -47 -5 -76 -27c-30 -23 -52 -60 -66 -110c-8 -24 -13 -46 -18 -63c-27 -93 9 -158 91 -158c81 0 112 74 130 139c11 39 16 55 24 88c12 42 8 79 -9 102c-15 19 -41 29 -76 29z" />
    <glyph glyph-name="q" unicode="Q" horiz-adv-x="588" 
d="M299 -238c-4 0 -8 0 -12 1c-23 7 -36 30 -30 53c34 121 43 156 55 198c-29 -14 -61 -22 -95 -22c-58 0 -107 23 -137 63c-34 45 -41 112 -22 182l-54 -64c-9 -10 -21 -17 -33 -17c-10 0 -20 3 -28 10c-18 16 -20 44 -4 62l113 134c40 44 72 92 121 123
c40 26 86 38 136 38c51 0 98 -18 131 -50l3 11c6 22 30 36 53 29c23 -6 36 -30 30 -53l-97 -349l214 255c15 18 43 20 61 4c18 -15 21 -40 5 -58l-286 -341c-20 -22 -47 -53 -58 -89c-19 -67 -25 -88 -25 -89c-5 -19 -22 -31 -41 -31zM309 437c-59 0 -115 -35 -143 -135
l-26 -92c-12 -43 -9 -80 9 -103c17 -24 47 -29 68 -29c34 0 115 15 158 162l23 83c8 33 4 61 -11 81c-15 19 -41 33 -78 33z" />
    <glyph glyph-name="q" unicode="q" horiz-adv-x="588" 
d="M299 -238c-4 0 -8 0 -12 1c-23 7 -36 30 -30 53c34 121 43 156 55 198c-29 -14 -61 -22 -95 -22c-58 0 -107 23 -137 63c-34 45 -41 112 -22 182l-54 -64c-9 -10 -21 -17 -33 -17c-10 0 -20 3 -28 10c-18 16 -20 44 -4 62l113 134c40 44 72 92 121 123
c40 26 86 38 136 38c51 0 98 -18 131 -50l3 11c6 22 30 36 53 29c23 -6 36 -30 30 -53l-97 -349l214 255c15 18 43 20 61 4c18 -15 21 -40 5 -58l-286 -341c-20 -22 -47 -53 -58 -89c-19 -67 -25 -88 -25 -89c-5 -19 -22 -31 -41 -31zM309 437c-59 0 -115 -35 -143 -135
l-26 -92c-12 -43 -9 -80 9 -103c17 -24 47 -29 68 -29c34 0 115 15 158 162l23 83c8 33 4 61 -11 81c-15 19 -41 33 -78 33z" />
    <glyph glyph-name="r" unicode="R" horiz-adv-x="446" 
d="M229 -8c-30 0 -58 12 -77 32c-17 19 -26 44 -26 72c0 30 10 59 20 82c36 82 75 163 106 237l-29 17l-179 -212c-15 -18 -42 -21 -60 -5c-19 15 -21 42 -5 60l246 291c17 20 44 21 62 5c18 -15 18 -42 3 -60l-13 -15l57 -35c18 -12 20 -31 11 -52
c-40 -93 -87 -189 -120 -266c-6 -14 -9 -27 -9 -38c0 -16 13 -26 25 -26c10 0 21 3 50 37l170 202c17 20 44 21 62 5c18 -15 18 -42 3 -60l-136 -162c-66 -79 -102 -109 -161 -109z" />
    <glyph glyph-name="r" unicode="r" horiz-adv-x="446" 
d="M229 -8c-30 0 -58 12 -77 32c-17 19 -26 44 -26 72c0 30 10 59 20 82c36 82 75 163 106 237l-29 17l-179 -212c-15 -18 -42 -21 -60 -5c-19 15 -21 42 -5 60l246 291c17 20 44 21 62 5c18 -15 18 -42 3 -60l-13 -15l57 -35c18 -12 20 -31 11 -52
c-40 -93 -87 -189 -120 -266c-6 -14 -9 -27 -9 -38c0 -16 13 -26 25 -26c10 0 21 3 50 37l170 202c17 20 44 21 62 5c18 -15 18 -42 3 -60l-136 -162c-66 -79 -102 -109 -161 -109z" />
    <glyph glyph-name="s" unicode="S" horiz-adv-x="423" 
d="M148 -8c-50 0 -101 25 -120 40c-18 14 -22 41 -7 60c14 19 41 23 60 8c8 -7 35 -22 67 -22c35 0 54 16 65 27c15 15 24 35 24 55c0 23 -4 43 -47 116c-25 40 -33 55 -40 70l-143 -170c-16 -19 -42 -22 -60 -6c-19 15 -20 43 -5 61l227 270c14 17 43 18 59 4
c18 -16 21 -43 5 -61c-18 -21 -16 -32 -15 -38c4 -21 32 -61 46 -86c40 -68 54 -104 58 -137l44 50l98 116c15 18 43 20 61 5c18 -16 19 -42 4 -60l-100 -119c-68 -77 -113 -121 -155 -148c-47 -28 -86 -35 -126 -35z" />
    <glyph glyph-name="s" unicode="s" horiz-adv-x="423" 
d="M148 -8c-50 0 -101 25 -120 40c-18 14 -22 41 -7 60c14 19 41 23 60 8c8 -7 35 -22 67 -22c35 0 54 16 65 27c15 15 24 35 24 55c0 23 -4 43 -47 116c-25 40 -33 55 -40 70l-143 -170c-16 -19 -42 -22 -60 -6c-19 15 -20 43 -5 61l227 270c14 17 43 18 59 4
c18 -16 21 -43 5 -61c-18 -21 -16 -32 -15 -38c4 -21 32 -61 46 -86c40 -68 54 -104 58 -137l44 50l98 116c15 18 43 20 61 5c18 -16 19 -42 4 -60l-100 -119c-68 -77 -113 -121 -155 -148c-47 -28 -86 -35 -126 -35z" />
    <glyph glyph-name="t" unicode="T" horiz-adv-x="374" 
d="M326 437h-98l-86 -315c-4 -13 -2 -25 4 -33c5 -6 12 -10 21 -10c15 0 29 11 46 30l187 222c16 18 43 21 61 6c18 -16 19 -43 4 -61l-184 -219c-24 -27 -58 -64 -114 -64c-36 0 -69 16 -90 44c-22 30 -29 69 -18 108l37 136l-85 -101c-9 -10 -21 -15 -33 -15
c-10 0 -20 3 -28 10c-18 16 -19 43 -4 61l117 139c63 75 83 100 101 153l29 105c7 22 30 36 53 30c23 -7 37 -30 30 -53l-24 -87h74c24 0 43 -20 43 -43c0 -24 -19 -43 -43 -43z" />
    <glyph glyph-name="t" unicode="t" horiz-adv-x="374" 
d="M326 437h-98l-86 -315c-4 -13 -2 -25 4 -33c5 -6 12 -10 21 -10c15 0 29 11 46 30l187 222c16 18 43 21 61 6c18 -16 19 -43 4 -61l-184 -219c-24 -27 -58 -64 -114 -64c-36 0 -69 16 -90 44c-22 30 -29 69 -18 108l37 136l-85 -101c-9 -10 -21 -15 -33 -15
c-10 0 -20 3 -28 10c-18 16 -19 43 -4 61l117 139c63 75 83 100 101 153l29 105c7 22 30 36 53 30c23 -7 37 -30 30 -53l-24 -87h74c24 0 43 -20 43 -43c0 -24 -19 -43 -43 -43z" />
    <glyph glyph-name="u" unicode="U" horiz-adv-x="650" 
d="M-28 157c-10 0 -20 3 -28 10c-18 16 -20 43 -5 61l229 272c11 13 29 18 46 13c23 -6 35 -30 29 -53l-69 -250c-13 -45 -10 -82 7 -105c16 -22 44 -27 65 -27c36 0 67 15 94 44c25 26 43 61 55 103l72 259c6 22 30 36 53 30c23 -7 36 -31 30 -53l-98 -353
c-4 -14 -3 -23 8 -23c7 0 13 5 18 11l191 227c16 18 43 20 61 5c18 -16 20 -41 5 -59l-187 -223c-27 -32 -52 -54 -97 -54c-25 0 -55 10 -74 47c-41 -36 -85 -47 -131 -47c-57 0 -104 22 -134 61c-34 45 -41 109 -21 181l17 62l-106 -126c-8 -10 -18 -13 -30 -13z" />
    <glyph glyph-name="u" unicode="u" horiz-adv-x="650" 
d="M-28 157c-10 0 -20 3 -28 10c-18 16 -20 43 -5 61l229 272c11 13 29 18 46 13c23 -6 35 -30 29 -53l-69 -250c-13 -45 -10 -82 7 -105c16 -22 44 -27 65 -27c36 0 67 15 94 44c25 26 43 61 55 103l72 259c6 22 30 36 53 30c23 -7 36 -31 30 -53l-98 -353
c-4 -14 -3 -23 8 -23c7 0 13 5 18 11l191 227c16 18 43 20 61 5c18 -16 20 -41 5 -59l-187 -223c-27 -32 -52 -54 -97 -54c-25 0 -55 10 -74 47c-41 -36 -85 -47 -131 -47c-57 0 -104 22 -134 61c-34 45 -41 109 -21 181l17 62l-106 -126c-8 -10 -18 -13 -30 -13z" />
    <glyph glyph-name="a" unicode="A" horiz-adv-x="616" 
d="M514 459l-103 -378c24 0 49 34 68 56l149 177c15 19 45 23 63 7c18 -15 19 -43 3 -61l-137 -163c-52 -60 -91 -105 -159 -105c-36 0 -60 17 -71 38c-36 -25 -77 -38 -120 -38c-59 0 -110 25 -141 65c-34 45 -35 101 -20 165l-43 -52c-9 -10 -21 -15 -33 -15
c-10 0 -20 3 -28 10c-18 16 -19 43 -4 61l116 138c55 65 84 98 118 121c39 27 84 38 131 38c48 0 88 -17 126 -50c1 3 3 9 5 16c5 18 26 29 50 22c23 -7 37 -30 30 -52zM211 78c59 0 111 19 144 133l33 119c6 30 2 55 -12 74c-16 21 -44 33 -77 33
c-78 -2 -124 -66 -144 -135c-9 -31 -16 -54 -24 -85c-13 -43 -10 -87 7 -110s51 -29 73 -29z" />
    <glyph glyph-name="a" unicode="a" horiz-adv-x="616" 
d="M514 459l-103 -378c24 0 49 34 68 56l149 177c15 19 45 23 63 7c18 -15 19 -43 3 -61l-137 -163c-52 -60 -91 -105 -159 -105c-36 0 -60 17 -71 38c-36 -25 -77 -38 -120 -38c-59 0 -110 25 -141 65c-34 45 -35 101 -20 165l-43 -52c-9 -10 -21 -15 -33 -15
c-10 0 -20 3 -28 10c-18 16 -19 43 -4 61l116 138c55 65 84 98 118 121c39 27 84 38 131 38c48 0 88 -17 126 -50c1 3 3 9 5 16c5 18 26 29 50 22c23 -7 37 -30 30 -52zM211 78c59 0 111 19 144 133l33 119c6 30 2 55 -12 74c-16 21 -44 33 -77 33
c-78 -2 -124 -66 -144 -135c-9 -31 -16 -54 -24 -85c-13 -43 -10 -87 7 -110s51 -29 73 -29z" />
    <glyph glyph-name="space" unicode=" " horiz-adv-x="400" 
 />
    <glyph glyph-name="v" unicode="V" horiz-adv-x="635" 
d="M-24 163c-10 0 -20 3 -28 10c-18 16 -18 45 -2 63c204 243 222 264 222 264c16 18 45 20 63 4c13 -12 16 -29 12 -44l-26 -89l-74 -254c-9 -24 8 -39 29 -39c36 0 80 23 129 67c27 24 51 52 70 76c-31 33 -53 80 -53 144c0 75 45 158 135 158c98 0 146 -105 95 -186
l-55 -90c15 -6 54 -12 87 -12l101 120c16 19 43 20 61 5c18 -16 20 -41 5 -59l-115 -137c-8 -10 -20 -15 -32 -15c-31 0 -108 3 -157 24c-22 -29 -52 -62 -85 -92c-65 -59 -127 -89 -186 -89c-78 0 -134 59 -112 146c1 8 19 70 43 152l-94 -112c-9 -10 -21 -15 -33 -15z
M451 437c-22 0 -47 -21 -47 -72c0 -31 6 -50 18 -69l50 81c15 24 11 60 -21 60z" />
    <glyph glyph-name="v" unicode="v" horiz-adv-x="635" 
d="M-24 163c-10 0 -20 3 -28 10c-18 16 -18 45 -2 63c204 243 222 264 222 264c16 18 45 20 63 4c13 -12 16 -29 12 -44l-26 -89l-74 -254c-9 -24 8 -39 29 -39c36 0 80 23 129 67c27 24 51 52 70 76c-31 33 -53 80 -53 144c0 75 45 158 135 158c98 0 146 -105 95 -186
l-55 -90c15 -6 54 -12 87 -12l101 120c16 19 43 20 61 5c18 -16 20 -41 5 -59l-115 -137c-8 -10 -20 -15 -32 -15c-31 0 -108 3 -157 24c-22 -29 -52 -62 -85 -92c-65 -59 -127 -89 -186 -89c-78 0 -134 59 -112 146c1 8 19 70 43 152l-94 -112c-9 -10 -21 -15 -33 -15z
M451 437c-22 0 -47 -21 -47 -72c0 -31 6 -50 18 -69l50 81c15 24 11 60 -21 60z" />
    <glyph glyph-name="w" unicode="W" horiz-adv-x="946" 
d="M-28 157c-11 0 -21 3 -29 10c-18 16 -20 43 -4 61l229 272c15 18 42 20 60 5c15 -12 18 -29 14 -45l-27 -90l-73 -253c-2 -8 -5 -22 1 -30c4 -6 14 -9 21 -9c65 0 115 90 150 146l170 271c12 20 40 26 60 14c17 -10 24 -30 18 -50c-2 -6 -13 -41 -27 -90
c-26 -90 -71 -242 -73 -252c-2 -8 -4 -22 2 -29c5 -6 16 -10 30 -10c36 0 85 24 137 68c30 25 57 53 77 77c-34 37 -53 86 -53 145c0 44 17 85 46 115c24 25 57 40 84 40c46 0 86 -22 107 -60c22 -38 19 -85 -11 -134l-51 -81c18 -6 39 -9 63 -11l98 117c16 18 43 20 61 4
s19 -41 4 -59l-111 -133c-8 -10 -20 -15 -33 -15c-51 0 -95 8 -132 23c-24 -29 -56 -62 -94 -94c-30 -26 -60 -46 -89 -60c-36 -18 -71 -28 -103 -28c-38 0 -78 14 -98 40c-14 19 -31 56 -18 106c1 4 5 21 13 46c-1 -1 -2 -2 -2 -3c-20 -36 -46 -80 -79 -117
c-43 -48 -91 -72 -143 -72c-37 0 -71 16 -92 43c-15 19 -29 53 -16 103l44 152l-100 -119c-8 -10 -19 -14 -31 -14zM786 437c-14 0 -44 -20 -44 -69c0 -29 5 -52 17 -71l49 77c13 22 15 37 9 47c-5 10 -17 16 -31 16z" />
    <glyph glyph-name="w" unicode="w" horiz-adv-x="946" 
d="M-28 157c-11 0 -21 3 -29 10c-18 16 -20 43 -4 61l229 272c15 18 42 20 60 5c15 -12 18 -29 14 -45l-27 -90l-73 -253c-2 -8 -5 -22 1 -30c4 -6 14 -9 21 -9c65 0 115 90 150 146l170 271c12 20 40 26 60 14c17 -10 24 -30 18 -50c-2 -6 -13 -41 -27 -90
c-26 -90 -71 -242 -73 -252c-2 -8 -4 -22 2 -29c5 -6 16 -10 30 -10c36 0 85 24 137 68c30 25 57 53 77 77c-34 37 -53 86 -53 145c0 44 17 85 46 115c24 25 57 40 84 40c46 0 86 -22 107 -60c22 -38 19 -85 -11 -134l-51 -81c18 -6 39 -9 63 -11l98 117c16 18 43 20 61 4
s19 -41 4 -59l-111 -133c-8 -10 -20 -15 -33 -15c-51 0 -95 8 -132 23c-24 -29 -56 -62 -94 -94c-30 -26 -60 -46 -89 -60c-36 -18 -71 -28 -103 -28c-38 0 -78 14 -98 40c-14 19 -31 56 -18 106c1 4 5 21 13 46c-1 -1 -2 -2 -2 -3c-20 -36 -46 -80 -79 -117
c-43 -48 -91 -72 -143 -72c-37 0 -71 16 -92 43c-15 19 -29 53 -16 103l44 152l-100 -119c-8 -10 -19 -14 -31 -14zM786 437c-14 0 -44 -20 -44 -69c0 -29 5 -52 17 -71l49 77c13 22 15 37 9 47c-5 10 -17 16 -31 16z" />
    <glyph glyph-name="x" unicode="X" horiz-adv-x="683" 
d="M-20 166c-10 0 -20 3 -28 10c-18 16 -21 43 -5 61l224 266c8 10 20 15 33 15c37 0 54 -4 69 -13c18 -11 31 -28 37 -50c3 -13 19 -69 32 -117l152 163c16 18 43 19 61 3c17 -17 18 -44 2 -61l-155 -165c14 -50 46 -164 52 -182c3 -12 11 -20 21 -20c17 0 32 15 48 34
l186 221c16 18 42 23 62 7c19 -15 20 -41 5 -59l-189 -226c-30 -33 -59 -61 -111 -61c-59 0 -90 29 -105 80l-38 131l-176 -189c-9 -9 -20 -14 -32 -14c-10 0 -21 4 -29 12c-18 16 -18 43 -2 60l180 193c-13 46 -42 146 -47 166c-1 1 -3 1 -5 1l-210 -251
c-8 -10 -20 -15 -32 -15z" />
    <glyph glyph-name="x" unicode="x" horiz-adv-x="683" 
d="M-20 166c-10 0 -20 3 -28 10c-18 16 -21 43 -5 61l224 266c8 10 20 15 33 15c37 0 54 -4 69 -13c18 -11 31 -28 37 -50c3 -13 19 -69 32 -117l152 163c16 18 43 19 61 3c17 -17 18 -44 2 -61l-155 -165c14 -50 46 -164 52 -182c3 -12 11 -20 21 -20c17 0 32 15 48 34
l186 221c16 18 42 23 62 7c19 -15 20 -41 5 -59l-189 -226c-30 -33 -59 -61 -111 -61c-59 0 -90 29 -105 80l-38 131l-176 -189c-9 -9 -20 -14 -32 -14c-10 0 -21 4 -29 12c-18 16 -18 43 -2 60l180 193c-13 46 -42 146 -47 166c-1 1 -3 1 -5 1l-210 -251
c-8 -10 -20 -15 -32 -15z" />
    <glyph glyph-name="y" unicode="Y" horiz-adv-x="646" 
d="M247 -8c-57 0 -104 22 -134 61c-34 45 -41 109 -21 181l18 65l-106 -127c-8 -10 -19 -15 -31 -15c-10 0 -20 3 -29 10c-22 19 -19 44 -1 65c28 33 76 91 226 268c15 19 43 20 61 5c11 -10 17 -25 15 -40c-15 -46 -25 -94 -38 -140c-16 -55 -30 -107 -32 -115
c-13 -45 -10 -82 7 -105c16 -22 44 -27 65 -27c36 0 67 15 93 45c26 28 48 73 62 125l66 236c6 22 30 36 53 30c23 -7 36 -31 30 -54c-2 -4 -68 -244 -115 -410l225 268c15 18 42 20 60 5c18 -16 21 -41 5 -59l-253 -303l-123 -139c-44 -46 -98 -60 -152 -60
c-58 0 -111 28 -138 55c-16 18 -15 44 1 61c18 19 45 16 61 -1c10 -9 40 -29 76 -29c54 0 99 26 113 74l25 90c-28 -13 -58 -20 -89 -20z" />
    <glyph glyph-name="y" unicode="y" horiz-adv-x="646" 
d="M247 -8c-57 0 -104 22 -134 61c-34 45 -41 109 -21 181l18 65l-106 -127c-8 -10 -19 -15 -31 -15c-10 0 -20 3 -29 10c-22 19 -19 44 -1 65c28 33 76 91 226 268c15 19 43 20 61 5c11 -10 17 -25 15 -40c-15 -46 -25 -94 -38 -140c-16 -55 -30 -107 -32 -115
c-13 -45 -10 -82 7 -105c16 -22 44 -27 65 -27c36 0 67 15 93 45c26 28 48 73 62 125l66 236c6 22 30 36 53 30c23 -7 36 -31 30 -54c-2 -4 -68 -244 -115 -410l225 268c15 18 42 20 60 5c18 -16 21 -41 5 -59l-253 -303l-123 -139c-44 -46 -98 -60 -152 -60
c-58 0 -111 28 -138 55c-16 18 -15 44 1 61c18 19 45 16 61 -1c10 -9 40 -29 76 -29c54 0 99 26 113 74l25 90c-28 -13 -58 -20 -89 -20z" />
    <glyph glyph-name="z" unicode="Z" horiz-adv-x="589" 
d="M-22 165c-10 0 -20 3 -28 10c-18 16 -19 43 -4 61l193 229c6 7 19 23 31 31c19 13 41 19 65 19h243c22 -2 40 -20 40 -43v-55c0 -13 -6 -25 -16 -33l-361 -298h180c39 0 73 12 106 36c32 23 59 56 85 87c46 54 133 158 127 151c15 18 42 20 60 5c18 -16 20 -41 5 -59
l-126 -151c-29 -35 -60 -73 -100 -102c-47 -36 -99 -53 -157 -53h-234c-24 0 -43 19 -43 43v54c0 13 6 26 16 34l362 298h-187c-16 0 -22 -7 -31 -18c-16 -18 -143 -172 -193 -231c-9 -10 -21 -15 -33 -15z" />
    <glyph glyph-name="z" unicode="z" horiz-adv-x="589" 
d="M-22 165c-10 0 -20 3 -28 10c-18 16 -19 43 -4 61l193 229c6 7 19 23 31 31c19 13 41 19 65 19h243c22 -2 40 -20 40 -43v-55c0 -13 -6 -25 -16 -33l-361 -298h180c39 0 73 12 106 36c32 23 59 56 85 87c46 54 133 158 127 151c15 18 42 20 60 5c18 -16 20 -41 5 -59
l-126 -151c-29 -35 -60 -73 -100 -102c-47 -36 -99 -53 -157 -53h-234c-24 0 -43 19 -43 43v54c0 13 6 26 16 34l362 298h-187c-16 0 -22 -7 -31 -18c-16 -18 -143 -172 -193 -231c-9 -10 -21 -15 -33 -15z" />
    <glyph glyph-name="ccedilla" unicode="&#xc7;" horiz-adv-x="522" 
d="M153 -73l-35 -43c-15 -18 -42 -18 -59 -3c-18 16 -20 42 -5 60l29 36c8 10 19 16 33 16c12 0 23 -4 35 -17s13 -33 2 -49zM588 311c18 -16 19 -42 4 -60l-79 -94c-31 -37 -65 -71 -109 -103c-58 -41 -117 -62 -175 -62c-32 0 -61 6 -87 17c-25 11 -47 27 -63 49
c-34 44 -43 107 -25 174c0 0 -46 -54 -51 -60c-9 -11 -21 -15 -33 -15c-10 0 -20 4 -28 11c-18 15 -20 40 -5 58l114 135c45 53 80 92 116 119c9 7 18 13 28 18c32 18 68 25 105 25c62 0 118 -24 162 -69c10 -11 14 -26 10 -41l-14 -56c-6 -23 -33 -36 -56 -30
s-34 30 -28 53l8 30c-24 18 -51 27 -82 27c-81 0 -118 -62 -138 -132c-9 -31 -17 -57 -26 -94c-17 -73 4 -133 93 -133c40 0 81 15 125 47c42 30 79 70 98 92l75 89c15 18 42 20 61 5z" />
    <glyph glyph-name="ccedilla" unicode="&#xe7;" horiz-adv-x="522" 
d="M153 -73l-35 -43c-15 -18 -42 -18 -59 -3c-18 16 -20 42 -5 60l29 36c8 10 19 16 33 16c12 0 23 -4 35 -17s13 -33 2 -49zM588 311c18 -16 19 -42 4 -60l-79 -94c-31 -37 -65 -71 -109 -103c-58 -41 -117 -62 -175 -62c-32 0 -61 6 -87 17c-25 11 -47 27 -63 49
c-34 44 -43 107 -25 174c0 0 -46 -54 -51 -60c-9 -11 -21 -15 -33 -15c-10 0 -20 4 -28 11c-18 15 -20 40 -5 58l114 135c45 53 80 92 116 119c9 7 18 13 28 18c32 18 68 25 105 25c62 0 118 -24 162 -69c10 -11 14 -26 10 -41l-14 -56c-6 -23 -33 -36 -56 -30
s-34 30 -28 53l8 30c-24 18 -51 27 -82 27c-81 0 -118 -62 -138 -132c-9 -31 -17 -57 -26 -94c-17 -73 4 -133 93 -133c40 0 81 15 125 47c42 30 79 70 98 92l75 89c15 18 42 20 61 5z" />
    <glyph glyph-name="dotlessi" unicode="&#x131;" horiz-adv-x="344" 
d="M52 93c0 0 30 111 55 202l-94 -112c-16 -18 -41 -18 -59 -4s-20 43 -5 61l219 260c8 10 21 15 33 15c25 0 44 -19 44 -41c0 -4 -1 -10 -4 -22l-102 -371c24 0 49 34 68 56l149 177c15 19 45 23 63 7c18 -15 17 -44 2 -62l-135 -161c-51 -61 -92 -106 -160 -106
c-53 0 -78 37 -78 70c0 8 2 23 4 31z" />
    <glyph glyph-name="scedilla" unicode="&#x15e;" horiz-adv-x="423" 
d="M103 -76l-33 -40c-15 -18 -45 -18 -62 -3c-18 16 -17 42 -2 60l27 33c18 22 49 20 68 -1c12 -13 13 -33 2 -49zM148 -8c-50 0 -101 25 -120 40c-18 14 -22 41 -7 60c14 19 41 23 60 8c8 -7 35 -22 67 -22c35 0 54 16 65 27c15 15 24 35 24 55c0 23 -4 43 -47 116
c-25 40 -33 55 -40 70l-143 -170c-16 -19 -42 -22 -60 -6c-19 15 -20 43 -5 61l227 270c14 17 43 18 59 4c18 -16 21 -43 5 -61c-18 -21 -16 -32 -15 -38c4 -21 32 -61 46 -86c40 -68 54 -104 58 -137l44 50l98 116c15 18 43 20 61 5c18 -16 19 -42 4 -60l-100 -119
c-68 -77 -113 -121 -155 -148c-47 -28 -86 -35 -126 -35z" />
    <glyph glyph-name="scedilla" unicode="&#x15f;" horiz-adv-x="423" 
d="M103 -76l-33 -40c-15 -18 -45 -18 -62 -3c-18 16 -17 42 -2 60l27 33c18 22 49 20 68 -1c12 -13 13 -33 2 -49zM148 -8c-50 0 -101 25 -120 40c-18 14 -22 41 -7 60c14 19 41 23 60 8c8 -7 35 -22 67 -22c35 0 54 16 65 27c15 15 24 35 24 55c0 23 -4 43 -47 116
c-25 40 -33 55 -40 70l-143 -170c-16 -19 -42 -22 -60 -6c-19 15 -20 43 -5 61l227 270c14 17 43 18 59 4c18 -16 21 -43 5 -61c-18 -21 -16 -32 -15 -38c4 -21 32 -61 46 -86c40 -68 54 -104 58 -137l44 50l98 116c15 18 43 20 61 5c18 -16 19 -42 4 -60l-100 -119
c-68 -77 -113 -121 -155 -148c-47 -28 -86 -35 -126 -35z" />
    <glyph glyph-name="odieresis" unicode="&#xd6;" horiz-adv-x="576" 
d="M290 587c-32 0 -57 26 -57 57c0 32 25 57 57 57c31 0 57 -25 57 -57c0 -31 -26 -57 -57 -57zM456 587c-32 0 -57 26 -57 57c0 32 25 57 57 57c31 0 57 -25 57 -57c0 -31 -26 -57 -57 -57zM212 -8c-57 0 -107 22 -137 62c-37 51 -40 116 -23 173c1 3 1 3 1 4v0l-51 -61
c-16 -18 -39 -19 -58 -4c-18 15 -21 44 -5 62l137 163c48 56 84 89 118 108c33 19 64 24 95 24c24 0 37 -11 43 -28c15 7 30 11 46 11c34 0 65 -15 86 -41c18 -23 37 -65 20 -136c-2 -10 -12 -45 -23 -85c11 -4 42 -7 62 -7l94 112c15 18 43 19 61 3c18 -15 20 -39 5 -57
l-102 -123c-10 -12 -32 -22 -54 -22c-30 0 -54 2 -92 12c-18 -44 -43 -81 -73 -109c-42 -40 -94 -61 -150 -61zM271 435c-20 -4 -37 -13 -53 -28c-24 -24 -43 -60 -57 -109c-9 -34 -17 -62 -26 -92c-4 -15 -7 -34 -7 -48c0 -48 31 -80 84 -80c34 0 65 13 92 38
c20 19 37 45 51 77c-16 9 -30 19 -42 31c-38 38 -57 80 -57 135c0 23 5 56 15 76zM378 420c-16 0 -36 -18 -36 -53s12 -68 39 -88c8 28 18 62 19 70c7 28 6 51 -3 62c-6 7 -15 9 -19 9z" />
    <glyph glyph-name="odieresis" unicode="&#xf6;" horiz-adv-x="576" 
d="M290 587c-32 0 -57 26 -57 57c0 32 25 57 57 57c31 0 57 -25 57 -57c0 -31 -26 -57 -57 -57zM456 587c-32 0 -57 26 -57 57c0 32 25 57 57 57c31 0 57 -25 57 -57c0 -31 -26 -57 -57 -57zM212 -8c-57 0 -107 22 -137 62c-37 51 -40 116 -23 173c1 3 1 3 1 4v0l-51 -61
c-16 -18 -39 -19 -58 -4c-18 15 -21 44 -5 62l137 163c48 56 84 89 118 108c33 19 64 24 95 24c24 0 37 -11 43 -28c15 7 30 11 46 11c34 0 65 -15 86 -41c18 -23 37 -65 20 -136c-2 -10 -12 -45 -23 -85c11 -4 42 -7 62 -7l94 112c15 18 43 19 61 3c18 -15 20 -39 5 -57
l-102 -123c-10 -12 -32 -22 -54 -22c-30 0 -54 2 -92 12c-18 -44 -43 -81 -73 -109c-42 -40 -94 -61 -150 -61zM271 435c-20 -4 -37 -13 -53 -28c-24 -24 -43 -60 -57 -109c-9 -34 -17 -62 -26 -92c-4 -15 -7 -34 -7 -48c0 -48 31 -80 84 -80c34 0 65 13 92 38
c20 19 37 45 51 77c-16 9 -30 19 -42 31c-38 38 -57 80 -57 135c0 23 5 56 15 76zM378 420c-16 0 -36 -18 -36 -53s12 -68 39 -88c8 28 18 62 19 70c7 28 6 51 -3 62c-6 7 -15 9 -19 9z" />
    <glyph glyph-name="udieresis" unicode="&#xdc;" horiz-adv-x="650" 
d="M309 587c-32 0 -57 26 -57 57c0 32 25 57 57 57c31 0 57 -25 57 -57c0 -31 -26 -57 -57 -57zM475 587c-32 0 -57 26 -57 57c0 32 25 57 57 57c31 0 57 -25 57 -57c0 -31 -26 -57 -57 -57zM-28 157c-10 0 -20 3 -28 10c-18 16 -20 43 -5 61l229 272c11 13 29 18 46 13
c23 -6 35 -30 29 -53l-69 -250c-13 -45 -10 -82 7 -105c16 -22 44 -27 65 -27c36 0 67 15 94 44c25 26 43 61 55 103l72 259c6 22 30 36 53 30c23 -7 36 -31 30 -53l-98 -353c-4 -14 -3 -23 8 -23c7 0 13 5 18 11l191 227c16 18 43 20 61 5c18 -16 20 -41 5 -59l-187 -223
c-27 -32 -52 -54 -97 -54c-25 0 -55 10 -74 47c-41 -36 -85 -47 -131 -47c-57 0 -104 22 -134 61c-34 45 -41 109 -21 181l17 62l-106 -126c-8 -10 -18 -13 -30 -13z" />
    <glyph glyph-name="udieresis" unicode="&#xfc;" horiz-adv-x="650" 
d="M309 587c-32 0 -57 26 -57 57c0 32 25 57 57 57c31 0 57 -25 57 -57c0 -31 -26 -57 -57 -57zM475 587c-32 0 -57 26 -57 57c0 32 25 57 57 57c31 0 57 -25 57 -57c0 -31 -26 -57 -57 -57zM-28 157c-10 0 -20 3 -28 10c-18 16 -20 43 -5 61l229 272c11 13 29 18 46 13
c23 -6 35 -30 29 -53l-69 -250c-13 -45 -10 -82 7 -105c16 -22 44 -27 65 -27c36 0 67 15 94 44c25 26 43 61 55 103l72 259c6 22 30 36 53 30c23 -7 36 -31 30 -53l-98 -353c-4 -14 -3 -23 8 -23c7 0 13 5 18 11l191 227c16 18 43 20 61 5c18 -16 20 -41 5 -59l-187 -223
c-27 -32 -52 -54 -97 -54c-25 0 -55 10 -74 47c-41 -36 -85 -47 -131 -47c-57 0 -104 22 -134 61c-34 45 -41 109 -21 181l17 62l-106 -126c-8 -10 -18 -13 -30 -13z" />
    <glyph glyph-name="circumflex" unicode="&#x2c6;" horiz-adv-x="510" 
d="M268 716c27 0 47 -12 61 -30l58 -77c23 -23 3 -62 -27 -62c-10 0 -19 3 -28 12l-56 75c-4 4 -7 6 -12 6s-9 -3 -12 -6l-96 -75c-11 -9 -20 -12 -30 -12c-23 0 -36 18 -36 36c0 11 4 21 13 28l96 75c24 19 41 30 69 30z" />
    <glyph glyph-name="breve" unicode="&#x2d8;" horiz-adv-x="647" 
d="M334 578c-56 0 -89 17 -114 37c-16 13 -34 36 -34 57c0 14 10 36 37 36c10 0 21 -6 30 -16c26 -30 50 -38 79 -38c32 0 57 13 84 34c18 14 27 20 39 20c24 0 36 -20 36 -36c0 -15 -7 -26 -22 -41c-27 -27 -83 -53 -135 -53z" />
    <glyph glyph-name="f.alt" 
d="M412 178l149 177c14 17 40 27 62 7c28 -25 11 -54 3 -62l-152 -181c-34 -40 -68 -70 -104 -91c-20 -12 -41 -22 -63 -28l-23 -89c-25 -96 -88 -150 -177 -150c-44 0 -85 19 -109 51c-18 23 -35 64 -17 126l86 310l-61 -73c-9 -10 -21 -15 -33 -15c-10 0 -19 4 -27 11
c-18 15 -21 40 -6 58l160 190c12 15 25 44 34 72l44 161c9 34 25 60 46 79c23 19 51 29 85 29c37 0 72 -17 95 -47c18 -24 36 -69 16 -140l-23 -84c-4 -15 -8 -30 -12 -42c-13 -48 -33 -83 -60 -108l5 -6c29 -37 38 -90 25 -145l-20 -81c24 16 52 42 77 71zM271 208
c7 29 4 56 -9 71c-9 12 -24 18 -45 18c-32 0 -53 -19 -62 -52c-5 -18 -19 -63 -20 -71c-5 -22 -5 -52 10 -71c18 -24 56 -29 84 -29h8zM302 470c4 12 8 27 12 42l23 84c9 29 8 52 -2 65c-8 11 -20 13 -26 13c-19 0 -37 -5 -48 -44l-8 -29l-60 -219c4 1 15 1 25 1
c16 0 36 8 48 19c15 13 27 36 36 68zM201 -67l14 55c-29 2 -55 7 -77 16c-16 7 -30 16 -42 26c-18 -62 -30 -106 -32 -115c-5 -16 -8 -37 3 -51c7 -10 23 -16 40 -16c12 0 30 1 47 11c22 13 37 38 47 74z" />
    <glyph glyph-name="zero" unicode="0" horiz-adv-x="598" 
d="M367 707c92 0 252 -36 200 -225c-15 -54 -53 -188 -75 -271c-29 -111 -83 -219 -269 -219c-153 0 -236 78 -199 219c21 80 48 173 77 278c38 137 109 218 266 218zM367 626c-95 0 -151 -39 -177 -136c-16 -59 -65 -233 -77 -281c-24 -86 10 -131 109 -131
c113 0 163 64 181 131c13 50 69 248 78 281c33 121 -58 136 -114 136z" />
    <glyph glyph-name="one" unicode="1" horiz-adv-x="372" 
d="M201 700h101c50 0 61 -28 51 -65c-54 -198 -102 -360 -156 -550h62c28 0 42 -20 38 -45s-18 -40 -45 -40h-198c-27 0 -42 21 -38 47s19 38 42 38h53c36 129 148 530 148 530h-71c-27 0 -42 19 -38 44c5 29 26 41 51 41z" />
    <glyph glyph-name="two" unicode="2" horiz-adv-x="520" 
d="M287 700h66c107 0 157 -76 157 -145c0 -79 -40 -129 -83 -173c-17 -18 -293 -296 -293 -296h278c36 0 47 -19 47 -43s-12 -43 -48 -43h-324c-41 0 -72 16 -72 53c0 24 10 39 25 55l322 330c35 35 60 68 60 115c0 44 -36 65 -75 65h-64c-49 0 -75 -28 -89 -65
c-9 -23 -22 -38 -50 -38c-30 0 -49 24 -34 65c26 70 84 120 177 120z" />
    <glyph glyph-name="three" unicode="3" horiz-adv-x="516" 
d="M282 700h66c100 0 158 -47 158 -126c0 -61 -23 -95 -80 -128c-30 -17 -125 -68 -125 -68c21 -11 34 -18 55 -33c73 -50 83 -111 83 -163c0 -91 -57 -182 -224 -182h-167c-29 0 -38 19 -38 41s13 39 38 39h168c80 0 137 33 137 105c0 32 -2 70 -56 104
c-20 13 -44 26 -60 36c-27 16 -35 33 -35 57c0 35 32 52 68 71c30 16 82 43 118 68c15 11 30 28 30 50c0 32 -24 47 -51 47h-89c-34 0 -56 -8 -67 -37c-9 -23 -17 -37 -45 -37c-33 0 -52 25 -38 66c19 55 68 90 154 90z" />
    <glyph glyph-name="four" unicode="4" horiz-adv-x="468" 
d="M290 700c36 0 53 -31 38 -64c-9 -19 -205 -424 -205 -424h226l16 61c8 30 25 42 49 42c34 0 46 -27 40 -50l-62 -229c-8 -28 -20 -43 -50 -43s-48 17 -39 51l23 85h-260c-57 0 -64 43 -47 77s205 412 231 466c8 17 18 28 40 28z" />
    <glyph glyph-name="five" unicode="5" horiz-adv-x="500" 
d="M61 0c-27 0 -46 14 -46 40s12 42 42 42h134c113 0 171 62 171 148c0 60 -36 84 -74 101c-29 13 -105 44 -147 62c-31 13 -41 40 -32 76c14 53 45 171 53 194c11 32 34 37 56 37h234c36 0 48 -16 48 -40s-17 -46 -53 -46c-55 0 -209 1 -209 1s-29 -99 -39 -134
c-4 -14 -1 -21 8 -25c28 -12 83 -35 124 -52c68 -28 119 -81 119 -168c0 -151 -95 -236 -286 -236h-103z" />
    <glyph glyph-name="six" unicode="6" horiz-adv-x="541" 
d="M354 626c-84 0 -143 -39 -169 -136l-15 -52h117c121 0 196 -73 196 -174c0 -103 -66 -272 -265 -272c-177 0 -228 129 -191 270c21 80 35 123 64 228c38 137 114 217 257 217c71 0 122 -18 161 -42c26 -16 25 -38 14 -57s-33 -26 -59 -12c-30 16 -68 30 -110 30zM272 357
h-124c-13 -46 -26 -90 -31 -113c-24 -86 -9 -166 100 -166c126 0 176 103 176 172c0 72 -42 107 -121 107z" />
    <glyph glyph-name="seven" unicode="7" horiz-adv-x="466" 
d="M144 700h211c97 0 117 -66 77 -147l-254 -521c-12 -24 -34 -39 -62 -28c-34 13 -32 46 -23 64l272 538c4 7 1 12 -6 12h-210c-19 0 -31 -7 -38 -27c-8 -23 -16 -34 -44 -34c-30 0 -49 21 -39 63c12 49 42 80 116 80z" />
    <glyph glyph-name="eight" unicode="8" horiz-adv-x="556" 
d="M100 305l130 87c-59 46 -90 108 -90 157c0 105 86 158 215 158c143 0 186 -79 186 -138c0 -45 -32 -92 -77 -121c-33 -21 -83 -58 -89 -62c26 -21 33 -26 54 -44c69 -58 79 -109 79 -152c0 -106 -105 -198 -261 -198c-145 0 -232 68 -232 170c0 58 28 104 85 143z
M417 195c0 56 -60 93 -116 141l-154 -103c-30 -20 -41 -43 -41 -69c0 -55 52 -89 141 -89c118 0 170 62 170 120zM353 625c-72 0 -125 -20 -125 -72c0 -37 33 -75 77 -111c32 20 102 67 123 83c16 12 25 29 25 41c0 37 -39 59 -100 59z" />
    <glyph glyph-name="nine" unicode="9" horiz-adv-x="549" 
d="M321 707c145 0 246 -108 203 -285c-19 -80 -26 -107 -55 -212c-38 -137 -119 -210 -268 -210c-71 0 -126 17 -154 25c-29 8 -39 27 -36 48s20 40 49 34c43 -9 97 -24 139 -24c99 0 151 51 178 135l19 56h-76c-159 0 -237 78 -237 193c0 117 69 240 238 240zM317 621
c-105 0 -145 -69 -145 -149s44 -115 150 -115h97c2 9 19 83 22 98c12 73 -2 166 -124 166z" />
    <glyph glyph-name="gbreve" unicode="&#x11e;" horiz-adv-x="607" 
d="M682 323c18 -16 20 -42 5 -60l-251 -298c-97 -113 -132 -151 -133 -152c-31 -33 -79 -52 -127 -52c-78 0 -117 32 -140 55c-19 20 -32 42 -34 44c-12 21 -5 47 15 59c21 12 46 7 59 -15c0 0 10 -15 22 -28c13 -14 31 -28 78 -28c43 0 83 31 95 73c16 56 -18 98 -50 131
c-28 29 -50 50 -77 77c-48 48 -64 85 -69 128l-63 -75c-15 -18 -44 -23 -62 -8c-18 16 -20 43 -5 61c43 52 80 94 125 148c36 42 70 89 121 112c33 15 70 20 106 20h173c24 0 43 -19 43 -43s-19 -43 -43 -43h-20c21 -40 26 -89 12 -141c-15 -56 -43 -100 -82 -131
c-28 -22 -62 -36 -100 -42c36 -32 59 -68 74 -115c4 5 9 11 268 318c15 18 42 20 60 5zM379 310c15 59 -10 119 -82 119c-66 0 -114 -27 -133 -97c-10 -34 -11 -74 11 -103c15 -20 38 -31 64 -31c72 0 120 38 140 112zM345 586c-56 0 -89 17 -114 37c-16 13 -34 36 -34 57
c0 14 10 36 37 36c10 0 21 -6 30 -16c26 -30 50 -38 79 -38c32 0 57 13 84 34c18 14 27 20 39 20c24 0 36 -20 36 -36c0 -15 -7 -26 -22 -41c-27 -27 -83 -53 -135 -53z" />
    <glyph glyph-name="gbreve" unicode="&#x11f;" horiz-adv-x="607" 
d="M682 323c18 -16 20 -42 5 -60l-251 -298c-97 -113 -132 -151 -133 -152c-31 -33 -79 -52 -127 -52c-78 0 -117 32 -140 55c-19 20 -32 42 -34 44c-12 21 -5 47 15 59c21 12 46 7 59 -15c0 0 10 -15 22 -28c13 -14 31 -28 78 -28c43 0 83 31 95 73c16 56 -18 98 -50 131
c-28 29 -50 50 -77 77c-48 48 -64 85 -69 128l-63 -75c-15 -18 -44 -23 -62 -8c-18 16 -20 43 -5 61c43 52 80 94 125 148c36 42 70 89 121 112c33 15 70 20 106 20h173c24 0 43 -19 43 -43s-19 -43 -43 -43h-20c21 -40 26 -89 12 -141c-15 -56 -43 -100 -82 -131
c-28 -22 -62 -36 -100 -42c36 -32 59 -68 74 -115c4 5 9 11 268 318c15 18 42 20 60 5zM379 310c15 59 -10 119 -82 119c-66 0 -114 -27 -133 -97c-10 -34 -11 -74 11 -103c15 -20 38 -31 64 -31c72 0 120 38 140 112zM345 586c-56 0 -89 17 -114 37c-16 13 -34 36 -34 57
c0 14 10 36 37 36c10 0 21 -6 30 -16c26 -30 50 -38 79 -38c32 0 57 13 84 34c18 14 27 20 39 20c24 0 36 -20 36 -36c0 -15 -7 -26 -22 -41c-27 -27 -83 -53 -135 -53z" />
    <glyph glyph-name="c.fina" horiz-adv-x="522" 
d="M492 202c18 -16 19 -41 5 -60c-16 -22 -59 -63 -93 -88c-57 -42 -117 -62 -175 -62c-32 0 -61 6 -87 17c-25 11 -47 27 -63 49c-34 44 -43 107 -25 174c0 0 -46 -54 -51 -60c-9 -11 -21 -15 -33 -15c-10 0 -20 4 -28 11c-18 15 -20 40 -5 58l114 135c45 53 80 92 116 119
c9 7 18 13 28 18c32 18 68 25 105 25c62 0 118 -24 162 -69c10 -11 14 -26 10 -41l-14 -56c-6 -23 -33 -36 -56 -30s-34 30 -28 53l8 30c-24 18 -51 27 -82 27c-81 0 -118 -62 -138 -132c-9 -31 -17 -57 -26 -94c-17 -73 4 -133 93 -133c40 0 81 15 125 47
c21 15 59 51 78 72c16 17 41 20 60 5z" />
    <glyph glyph-name="e.fina" 
d="M534 198c18 -16 16 -43 2 -60c-79 -97 -174 -146 -290 -146c-95 0 -143 36 -169 71c-32 43 -44 102 -28 163l-45 -54c-9 -10 -21 -14 -33 -14c-10 0 -20 3 -28 10c-18 16 -18 44 -2 62l139 165c43 51 81 84 119 103c36 19 75 25 115 25c75 0 150 -45 150 -138
c0 -122 -104 -189 -242 -189h-92c-6 -32 1 -61 16 -81c19 -25 59 -36 108 -36c79 0 149 33 219 115c17 20 43 20 61 4zM377 362c10 44 -20 75 -67 75c-77 0 -128 -55 -151 -135c-2 -7 -4 -14 -5 -20h68c58 0 140 9 155 80z" />
    <glyph glyph-name="z.fina" horiz-adv-x="589" 
d="M-22 165c-10 0 -20 3 -28 10c-18 16 -19 43 -4 61l193 229c6 7 19 23 31 31c19 13 41 19 65 19h243c22 -2 40 -20 40 -43v-55c0 -13 -6 -25 -16 -33l-361 -298h180c39 0 73 12 106 36c18 13 43 38 59 56s42 20 60 5c18 -16 20 -41 5 -59c6 5 -33 -42 -73 -71
c-47 -36 -99 -53 -157 -53h-234c-24 0 -43 19 -43 43v54c0 13 6 26 16 34l362 298h-187c-16 0 -22 -7 -31 -18c-16 -18 -143 -172 -193 -231c-9 -10 -21 -15 -33 -15z" />
    <glyph glyph-name="ccedilla.fina" horiz-adv-x="522" 
d="M153 -73l-35 -43c-15 -18 -42 -18 -59 -3c-18 16 -20 42 -5 60l29 36c8 10 19 16 33 16c12 0 23 -4 35 -17s13 -33 2 -49zM492 202c18 -16 19 -41 5 -60c-16 -22 -59 -63 -93 -88c-57 -42 -117 -62 -175 -62c-32 0 -61 6 -87 17c-25 11 -47 27 -63 49
c-34 44 -43 107 -25 174c0 0 -46 -54 -51 -60c-9 -11 -21 -15 -33 -15c-10 0 -20 4 -28 11c-18 15 -20 40 -5 58l114 135c45 53 80 92 116 119c9 7 18 13 28 18c32 18 68 25 105 25c62 0 118 -24 162 -69c10 -11 14 -26 10 -41l-14 -56c-6 -23 -33 -36 -56 -30
s-34 30 -28 53l8 30c-24 18 -51 27 -82 27c-81 0 -118 -62 -138 -132c-9 -31 -17 -57 -26 -94c-17 -73 4 -133 93 -133c40 0 81 15 125 47c21 15 59 51 78 72c16 17 41 20 60 5z" />
    <glyph glyph-name="hyphen" unicode="-" horiz-adv-x="597" 
d="M191 341h285c25 0 41 -21 41 -41c0 -21 -16 -41 -41 -41h-285c-25 0 -41 20 -41 41c0 20 16 41 41 41z" />
    <glyph glyph-name="period" unicode="." horiz-adv-x="393" 
d="M120 68c0 43 33 77 76 77s77 -34 77 -77s-34 -76 -77 -76s-76 33 -76 76z" />
    <glyph glyph-name="comma" unicode="," horiz-adv-x="243" 
d="M60 68c0 43 33 77 76 77s77 -34 77 -77c0 -9 -2 -18 -17 -77l-14 -64c-5 -23 -25 -39 -46 -39c-38 0 -47 29 -41 54c6 26 12 47 14 55c-29 10 -49 38 -49 71z" />
    <glyph glyph-name="colon" unicode=":" horiz-adv-x="273" 
d="M60 68c0 43 33 77 76 77s77 -34 77 -77s-34 -76 -77 -76s-76 33 -76 76zM60 376c0 43 33 77 76 77s77 -34 77 -77s-34 -76 -77 -76s-76 33 -76 76z" />
    <glyph glyph-name="semicolon" unicode=";" horiz-adv-x="273" 
d="M60 376c0 43 33 77 76 77s77 -34 77 -77s-34 -76 -77 -76s-76 33 -76 76zM60 68c0 43 33 77 76 77s77 -34 77 -77c0 -9 -2 -18 -17 -77l-14 -64c-5 -23 -25 -39 -46 -39c-38 0 -47 29 -41 54c6 26 12 47 14 55c-29 10 -49 38 -49 71z" />
    <glyph glyph-name="quotesingle" unicode="'" horiz-adv-x="351" 
d="M108 676c0 43 33 77 76 77s77 -34 77 -77c0 -9 -2 -18 -17 -77l-14 -64c-5 -23 -25 -39 -46 -39c-38 0 -47 29 -41 54c6 26 12 47 14 55c-29 10 -49 38 -49 71z" />
    <glyph glyph-name="quoteleft" unicode="&#x2018;" horiz-adv-x="351" 
d="M261 573c0 -43 -33 -77 -76 -77s-77 34 -77 77c0 9 2 18 17 77l14 64c5 23 25 39 46 39c38 0 47 -29 41 -54c-6 -26 -12 -47 -14 -55c29 -10 49 -38 49 -71z" />
    <glyph glyph-name="quoteright" unicode="&#x2019;" horiz-adv-x="351" 
d="M108 676c0 43 33 77 76 77s77 -34 77 -77c0 -9 -2 -18 -17 -77l-14 -64c-5 -23 -25 -39 -46 -39c-38 0 -47 29 -41 54c6 26 12 47 14 55c-29 10 -49 38 -49 71z" />
    <glyph glyph-name="quotedblleft" unicode="&#x201c;" horiz-adv-x="569" 
d="M261 573c0 -43 -33 -77 -76 -77s-77 34 -77 77c0 9 2 18 17 77l14 64c5 23 25 39 46 39c38 0 47 -29 41 -54c-6 -26 -12 -47 -14 -55c29 -10 49 -38 49 -71zM479 573c0 -43 -33 -77 -76 -77s-77 34 -77 77c0 9 2 18 17 77l14 64c5 23 25 39 46 39c38 0 47 -29 41 -54
c-6 -26 -12 -47 -14 -55c29 -10 49 -38 49 -71z" />
    <glyph glyph-name="quotedblright" unicode="&#x201d;" horiz-adv-x="569" 
d="M326 676c0 43 33 77 76 77s77 -34 77 -77c0 -9 -2 -18 -17 -77l-14 -64c-5 -23 -25 -39 -46 -39c-38 0 -47 29 -41 54c6 26 12 47 14 55c-29 10 -49 38 -49 71zM108 676c0 43 33 77 76 77s77 -34 77 -77c0 -9 -2 -18 -17 -77l-14 -64c-5 -23 -25 -39 -46 -39
c-38 0 -47 29 -41 54c6 26 12 47 14 55c-29 10 -49 38 -49 71z" />
    <glyph glyph-name="exclam" unicode="!" horiz-adv-x="466" 
d="M314 715c5 24 21 38 44 38c33 0 48 -26 40 -57c-51 -197 -100 -365 -154 -555c-5 -22 -19 -41 -45 -41c-36 0 -48 26 -42 50c36 129 157 565 157 565zM157 -64c-32 0 -57 26 -57 57c0 32 25 57 57 57c31 0 57 -25 57 -57c0 -31 -26 -57 -57 -57z" />
    <glyph glyph-name="ampersand" unicode="&#x26;" horiz-adv-x="907" 
d="M459 707c128 0 178 -69 178 -125c0 -45 -23 -80 -62 -116c-38 -36 -96 -91 -102 -95c55 -62 96 -106 137 -151c33 39 56 65 79 93c13 15 34 25 54 15c23 -12 35 -41 9 -73c-36 -44 -51 -60 -84 -99c24 -26 49 -55 78 -88c23 -27 3 -68 -34 -68c-16 0 -26 5 -43 25l-58 67
c-53 -52 -127 -100 -244 -100c-142 0 -227 82 -227 176c0 22 0 17 1 29c2 26 15 45 35 62l160 139c-49 51 -72 83 -72 83c-4 20 -6 39 -6 56c0 25 3 68 36 108s90 62 165 62zM376 75c88 0 139 37 180 81c-56 65 -107 120 -164 183l-156 -141c-7 -7 -10 -11 -10 -22v-12
c4 -44 61 -89 150 -89zM464 628c-72 0 -130 -23 -116 -114c0 0 41 -49 72 -84c23 20 71 62 101 91c12 12 30 31 30 51c0 32 -26 56 -87 56z" />
    <glyph glyph-name="at" unicode="@" horiz-adv-x="1164" 
d="M1228 304c18 -15 15 -42 0 -60l-268 -319c-70 -83 -147 -133 -325 -133h-210c-253 0 -398 187 -337 442l13 52l-69 -81c-9 -11 -23 -17 -35 -17c-10 0 -20 3 -28 10c-18 15 -18 45 -2 63l102 121c38 43 86 107 136 175c88 128 226 174 417 174c122 0 250 -12 320 -80
c86 -83 71 -170 50 -275l-12 -62c-3 -12 -6 -37 -22 -54l-137 -163c-52 -60 -91 -105 -159 -105c-36 0 -60 17 -71 38c-36 -25 -77 -38 -120 -38c-59 0 -112 25 -143 65c-34 45 -42 102 -24 165c14 48 28 92 50 155c30 86 112 146 207 146c60 0 94 -17 132 -50l5 16
c5 18 26 29 50 22c23 -7 37 -30 30 -52l-103 -378c24 0 49 34 68 56l132 157c10 12 16 25 20 42l15 73c13 64 24 127 -34 182c-57 54 -172 54 -272 54c-201 0 -322 -55 -383 -261c-17 -57 -33 -105 -52 -184c-44 -183 56 -323 267 -323h219c141 0 199 46 255 113l257 314
c15 18 43 16 61 0zM475 78c64 0 111 19 144 133l33 119c6 30 2 55 -12 74c-16 21 -44 33 -77 33c-84 0 -124 -66 -144 -135c-9 -31 -16 -54 -24 -85c-13 -43 -10 -87 7 -110s51 -29 73 -29z" />
    <glyph glyph-name="question" unicode="?" horiz-adv-x="566" 
d="M275 700h95c99 0 168 -71 154 -161l-10 -65c-5 -34 -21 -60 -44 -80c-48 -42 -118 -94 -141 -117c-13 -13 -18 -20 -24 -42c-8 -31 -16 -59 -26 -95c-5 -19 -15 -41 -49 -41c-32 0 -45 26 -39 50l29 104c8 30 16 42 32 60c21 23 109 87 154 135c13 14 19 25 24 47
c4 17 6 35 8 53c4 40 -21 70 -70 70h-94c-34 0 -54 -9 -65 -38c-9 -23 -21 -32 -47 -32c-28 0 -51 18 -37 59c19 55 64 93 150 93zM207 -64c-32 0 -57 26 -57 57c0 32 25 57 57 57c31 0 57 -25 57 -57c0 -31 -26 -57 -57 -57z" />
    </font>
</defs>
</svg>
